<svg xmlns="http://www.w3.org/2000/svg" width="788" height="572" viewBox="0 0 788 572" role="img">
<rect width="788" height="572" rx="12" fill="#05070a"/>
<rect x="1" y="1" width="786" height="570" rx="11" fill="none" stroke="#17222e" stroke-width="2"/>
<circle cx="24" cy="27" r="5.5" fill="#ff5c5c" opacity="0.85"/>
<circle cx="44" cy="27" r="5.5" fill="#ffd640" opacity="0.85"/>
<circle cx="64" cy="27" r="5.5" fill="#4ef07f" opacity="0.85"/>
<text x="90" y="32" font-family="'JetBrains Mono','SFMono-Regular',Consolas,'Liberation Mono',monospace" font-size="13" fill="#5d7387">xray check 0x2ffab1d1... - live</text>
<rect x="671.36" y="15.36" width="3.4" height="3.4" fill="#31404f"/><rect x="670" y="14" width="3.4" height="3.4" fill="#9fd9ff"/><rect x="684.96" y="15.36" width="3.4" height="3.4" fill="#31404f"/><rect x="683.6" y="14" width="3.4" height="3.4" fill="#9fd9ff"/><rect x="674.76" y="18.759999999999998" width="3.4" height="3.4" fill="#31404f"/><rect x="673.4" y="17.4" width="3.4" height="3.4" fill="#9fd9ff"/><rect x="681.5600000000001" y="18.759999999999998" width="3.4" height="3.4" fill="#31404f"/><rect x="680.2" y="17.4" width="3.4" height="3.4" fill="#9fd9ff"/><rect x="678.16" y="22.16" width="3.4" height="3.4" fill="#31404f"/><rect x="676.8" y="20.8" width="3.4" height="3.4" fill="#9fd9ff"/><rect x="674.76" y="25.56" width="3.4" height="3.4" fill="#31404f"/><rect x="673.4" y="24.2" width="3.4" height="3.4" fill="#9fd9ff"/><rect x="681.5600000000001" y="25.56" width="3.4" height="3.4" fill="#31404f"/><rect x="680.2" y="24.2" width="3.4" height="3.4" fill="#9fd9ff"/><rect x="671.36" y="28.96" width="3.4" height="3.4" fill="#31404f"/><rect x="670" y="27.6" width="3.4" height="3.4" fill="#9fd9ff"/><rect x="684.96" y="28.96" width="3.4" height="3.4" fill="#31404f"/><rect x="683.6" y="27.6" width="3.4" height="3.4" fill="#9fd9ff"/><rect x="692.44" y="15.36" width="3.4" height="3.4" fill="#31404f"/><rect x="691.08" y="14" width="3.4" height="3.4" fill="#9fd9ff"/><rect x="695.84" y="15.36" width="3.4" height="3.4" fill="#31404f"/><rect x="694.48" y="14" width="3.4" height="3.4" fill="#9fd9ff"/><rect x="699.24" y="15.36" width="3.4" height="3.4" fill="#31404f"/><rect x="697.88" y="14" width="3.4" height="3.4" fill="#9fd9ff"/><rect x="702.6400000000001" y="15.36" width="3.4" height="3.4" fill="#31404f"/><rect x="701.2800000000001" y="14" width="3.4" height="3.4" fill="#9fd9ff"/><rect x="692.44" y="18.759999999999998" width="3.4" height="3.4" fill="#31404f"/><rect x="691.08" y="17.4" width="3.4" height="3.4" fill="#9fd9ff"/><rect x="706.0400000000001" y="18.759999999999998" width="3.4" height="3.4" fill="#31404f"/><rect x="704.6800000000001" y="17.4" width="3.4" height="3.4" fill="#9fd9ff"/><rect x="692.44" y="22.16" width="3.4" height="3.4" fill="#31404f"/><rect x="691.08" y="20.8" width="3.4" height="3.4" fill="#9fd9ff"/><rect x="695.84" y="22.16" width="3.4" height="3.4" fill="#31404f"/><rect x="694.48" y="20.8" width="3.4" height="3.4" fill="#9fd9ff"/><rect x="699.24" y="22.16" width="3.4" height="3.4" fill="#31404f"/><rect x="697.88" y="20.8" width="3.4" height="3.4" fill="#9fd9ff"/><rect x="702.6400000000001" y="22.16" width="3.4" height="3.4" fill="#31404f"/><rect x="701.2800000000001" y="20.8" width="3.4" height="3.4" fill="#9fd9ff"/><rect x="692.44" y="25.56" width="3.4" height="3.4" fill="#31404f"/><rect x="691.08" y="24.2" width="3.4" height="3.4" fill="#9fd9ff"/><rect x="702.6400000000001" y="25.56" width="3.4" height="3.4" fill="#31404f"/><rect x="701.2800000000001" y="24.2" width="3.4" height="3.4" fill="#9fd9ff"/><rect x="692.44" y="28.96" width="3.4" height="3.4" fill="#31404f"/><rect x="691.08" y="27.6" width="3.4" height="3.4" fill="#9fd9ff"/><rect x="706.0400000000001" y="28.96" width="3.4" height="3.4" fill="#31404f"/><rect x="704.6800000000001" y="27.6" width="3.4" height="3.4" fill="#9fd9ff"/><rect x="716.9200000000001" y="15.36" width="3.4" height="3.4" fill="#31404f"/><rect x="715.5600000000001" y="14" width="3.4" height="3.4" fill="#9fd9ff"/><rect x="720.32" y="15.36" width="3.4" height="3.4" fill="#31404f"/><rect x="718.96" y="14" width="3.4" height="3.4" fill="#9fd9ff"/><rect x="723.7200000000001" y="15.36" width="3.4" height="3.4" fill="#31404f"/><rect x="722.3600000000001" y="14" width="3.4" height="3.4" fill="#9fd9ff"/><rect x="713.5200000000001" y="18.759999999999998" width="3.4" height="3.4" fill="#31404f"/><rect x="712.1600000000001" y="17.4" width="3.4" height="3.4" fill="#9fd9ff"/><rect x="727.1200000000001" y="18.759999999999998" width="3.4" height="3.4" fill="#31404f"/><rect x="725.7600000000001" y="17.4" width="3.4" height="3.4" fill="#9fd9ff"/><rect x="713.5200000000001" y="22.16" width="3.4" height="3.4" fill="#31404f"/><rect x="712.1600000000001" y="20.8" width="3.4" height="3.4" fill="#9fd9ff"/><rect x="716.9200000000001" y="22.16" width="3.4" height="3.4" fill="#31404f"/><rect x="715.5600000000001" y="20.8" width="3.4" height="3.4" fill="#9fd9ff"/><rect x="720.32" y="22.16" width="3.4" height="3.4" fill="#31404f"/><rect x="718.96" y="20.8" width="3.4" height="3.4" fill="#9fd9ff"/><rect x="723.7200000000001" y="22.16" width="3.4" height="3.4" fill="#31404f"/><rect x="722.3600000000001" y="20.8" width="3.4" height="3.4" fill="#9fd9ff"/><rect x="727.1200000000001" y="22.16" width="3.4" height="3.4" fill="#31404f"/><rect x="725.7600000000001" y="20.8" width="3.4" height="3.4" fill="#9fd9ff"/><rect x="713.5200000000001" y="25.56" width="3.4" height="3.4" fill="#31404f"/><rect x="712.1600000000001" y="24.2" width="3.4" height="3.4" fill="#9fd9ff"/><rect x="727.1200000000001" y="25.56" width="3.4" height="3.4" fill="#31404f"/><rect x="725.7600000000001" y="24.2" width="3.4" height="3.4" fill="#9fd9ff"/><rect x="713.5200000000001" y="28.96" width="3.4" height="3.4" fill="#31404f"/><rect x="712.1600000000001" y="27.6" width="3.4" height="3.4" fill="#9fd9ff"/><rect x="727.1200000000001" y="28.96" width="3.4" height="3.4" fill="#31404f"/><rect x="725.7600000000001" y="27.6" width="3.4" height="3.4" fill="#9fd9ff"/><rect x="734.6000000000001" y="15.36" width="3.4" height="3.4" fill="#31404f"/><rect x="733.2400000000001" y="14" width="3.4" height="3.4" fill="#9fd9ff"/><rect x="748.2000000000002" y="15.36" width="3.4" height="3.4" fill="#31404f"/><rect x="746.8400000000001" y="14" width="3.4" height="3.4" fill="#9fd9ff"/><rect x="738.0000000000001" y="18.759999999999998" width="3.4" height="3.4" fill="#31404f"/><rect x="736.6400000000001" y="17.4" width="3.4" height="3.4" fill="#9fd9ff"/><rect x="744.8000000000002" y="18.759999999999998" width="3.4" height="3.4" fill="#31404f"/><rect x="743.4400000000002" y="17.4" width="3.4" height="3.4" fill="#9fd9ff"/><rect x="741.4000000000001" y="22.16" width="3.4" height="3.4" fill="#31404f"/><rect x="740.0400000000001" y="20.8" width="3.4" height="3.4" fill="#9fd9ff"/><rect x="741.4000000000001" y="25.56" width="3.4" height="3.4" fill="#31404f"/><rect x="740.0400000000001" y="24.2" width="3.4" height="3.4" fill="#9fd9ff"/><rect x="741.4000000000001" y="28.96" width="3.4" height="3.4" fill="#31404f"/><rect x="740.0400000000001" y="27.6" width="3.4" height="3.4" fill="#9fd9ff"/>
<line x1="1" y1="46" x2="787" y2="46" stroke="#17222e" stroke-width="1"/>
<text x="24.0" y="72" font-family="'JetBrains Mono','SFMono-Regular',Consolas,'Liberation Mono',monospace" font-size="14" fill="#ffd640" xml:space="preserve">note: wallet profiles are disabled in rpc mode (set BITQUERY_TOKEN to enable)</text>
<text x="24.0" y="94" font-family="'JetBrains Mono','SFMono-Regular',Consolas,'Liberation Mono',monospace" font-size="14" fill="#9fd9ff" xml:space="preserve">$FOMOPAD  0x2ffab1d13717c9cd72c497febd08aa5b7b8648f0  age 58m  phase graduated</text>
<text x="24.0" y="116" font-family="'JetBrains Mono','SFMono-Regular',Consolas,'Liberation Mono',monospace" font-size="14" fill="#cfe4f0" xml:space="preserve">mcap $413k   liquidity $49k   volume 24h $990k   holders 1 964</text>
<text x="24.0" y="138" font-family="'JetBrains Mono','SFMono-Regular',Consolas,'Liberation Mono',monospace" font-size="14" fill="#cfe4f0" xml:space="preserve"> </text>
<text x="24.0" y="160" font-family="'JetBrains Mono','SFMono-Regular',Consolas,'Liberation Mono',monospace" font-size="14" fill="#cfe4f0" xml:space="preserve">avg pnl  </text>
<text x="99.6" y="160" font-family="'JetBrains Mono','SFMono-Regular',Consolas,'Liberation Mono',monospace" font-size="14" fill="#4ef07f" font-weight="700" xml:space="preserve">+117%</text>
<text x="141.6" y="160" font-family="'JetBrains Mono','SFMono-Regular',Consolas,'Liberation Mono',monospace" font-size="14" fill="#cfe4f0" xml:space="preserve">        across 1012 wallets</text>
<text x="24.0" y="182" font-family="'JetBrains Mono','SFMono-Regular',Consolas,'Liberation Mono',monospace" font-size="14" fill="#cfe4f0" xml:space="preserve"> </text>
<text x="24.0" y="204" font-family="'JetBrains Mono','SFMono-Regular',Consolas,'Liberation Mono',monospace" font-size="14" fill="#cfe4f0" xml:space="preserve">group 1   </text>
<text x="108.0" y="204" font-family="'JetBrains Mono','SFMono-Regular',Consolas,'Liberation Mono',monospace" font-size="14" fill="#4ef07f" font-weight="700" xml:space="preserve">+46..51%</text>
<text x="175.2" y="204" font-family="'JetBrains Mono','SFMono-Regular',Consolas,'Liberation Mono',monospace" font-size="14" fill="#cfe4f0" xml:space="preserve">   7% of supply   70 wallets</text>
<text x="24.0" y="226" font-family="'JetBrains Mono','SFMono-Regular',Consolas,'Liberation Mono',monospace" font-size="14" fill="#cfe4f0" xml:space="preserve">group 2   </text>
<text x="108.0" y="226" font-family="'JetBrains Mono','SFMono-Regular',Consolas,'Liberation Mono',monospace" font-size="14" fill="#4ef07f" font-weight="700" xml:space="preserve">+31..36%</text>
<text x="175.2" y="226" font-family="'JetBrains Mono','SFMono-Regular',Consolas,'Liberation Mono',monospace" font-size="14" fill="#cfe4f0" xml:space="preserve">   5% of supply   109 wallets</text>
<text x="24.0" y="248" font-family="'JetBrains Mono','SFMono-Regular',Consolas,'Liberation Mono',monospace" font-size="14" fill="#cfe4f0" xml:space="preserve">group 3   </text>
<text x="108.0" y="248" font-family="'JetBrains Mono','SFMono-Regular',Consolas,'Liberation Mono',monospace" font-size="14" fill="#4ef07f" font-weight="700" xml:space="preserve">+67..72%</text>
<text x="175.2" y="248" font-family="'JetBrains Mono','SFMono-Regular',Consolas,'Liberation Mono',monospace" font-size="14" fill="#cfe4f0" xml:space="preserve">   5% of supply   60 wallets</text>
<text x="24.0" y="270" font-family="'JetBrains Mono','SFMono-Regular',Consolas,'Liberation Mono',monospace" font-size="14" fill="#cfe4f0" xml:space="preserve"> </text>
<text x="24.0" y="292" font-family="'JetBrains Mono','SFMono-Regular',Consolas,'Liberation Mono',monospace" font-size="14" fill="#cfe4f0" xml:space="preserve">top holders</text>
<text x="24.0" y="314" font-family="'JetBrains Mono','SFMono-Regular',Consolas,'Liberation Mono',monospace" font-size="14" fill="#cfe4f0" xml:space="preserve">  #1  0x4fa6..5b86   1.0% supply   pnl </text>
<text x="351.6" y="314" font-family="'JetBrains Mono','SFMono-Regular',Consolas,'Liberation Mono',monospace" font-size="14" fill="#4ef07f" font-weight="700" xml:space="preserve">+493%</text>
<text x="24.0" y="336" font-family="'JetBrains Mono','SFMono-Regular',Consolas,'Liberation Mono',monospace" font-size="14" fill="#cfe4f0" xml:space="preserve">  #2  0x4290..6623   0.8% supply   pnl </text>
<text x="351.6" y="336" font-family="'JetBrains Mono','SFMono-Regular',Consolas,'Liberation Mono',monospace" font-size="14" fill="#4ef07f" font-weight="700" xml:space="preserve">+452%</text>
<text x="24.0" y="358" font-family="'JetBrains Mono','SFMono-Regular',Consolas,'Liberation Mono',monospace" font-size="14" fill="#cfe4f0" xml:space="preserve">  #3  0x41b4..7972   0.7% supply   pnl </text>
<text x="351.6" y="358" font-family="'JetBrains Mono','SFMono-Regular',Consolas,'Liberation Mono',monospace" font-size="14" fill="#4ef07f" font-weight="700" xml:space="preserve">+750%</text>
<text x="24.0" y="380" font-family="'JetBrains Mono','SFMono-Regular',Consolas,'Liberation Mono',monospace" font-size="14" fill="#cfe4f0" xml:space="preserve">  #4  0x5415..d730   0.7% supply   pnl </text>
<text x="351.6" y="380" font-family="'JetBrains Mono','SFMono-Regular',Consolas,'Liberation Mono',monospace" font-size="14" fill="#4ef07f" font-weight="700" xml:space="preserve">+309%</text>
<text x="24.0" y="402" font-family="'JetBrains Mono','SFMono-Regular',Consolas,'Liberation Mono',monospace" font-size="14" fill="#cfe4f0" xml:space="preserve">  #5  0x5565..f98c   0.7% supply   pnl </text>
<text x="351.6" y="402" font-family="'JetBrains Mono','SFMono-Regular',Consolas,'Liberation Mono',monospace" font-size="14" fill="#4ef07f" font-weight="700" xml:space="preserve">+222%</text>
<text x="24.0" y="424" font-family="'JetBrains Mono','SFMono-Regular',Consolas,'Liberation Mono',monospace" font-size="14" fill="#cfe4f0" xml:space="preserve"> </text>
<text x="24.0" y="446" font-family="'JetBrains Mono','SFMono-Regular',Consolas,'Liberation Mono',monospace" font-size="14" fill="#cfe4f0" xml:space="preserve">exited      981 wallets, avg pnl </text>
<text x="301.2" y="446" font-family="'JetBrains Mono','SFMono-Regular',Consolas,'Liberation Mono',monospace" font-size="14" fill="#4ef07f" font-weight="700" xml:space="preserve">+26%</text>
<text x="24.0" y="468" font-family="'JetBrains Mono','SFMono-Regular',Consolas,'Liberation Mono',monospace" font-size="14" fill="#5d7387" xml:space="preserve">excluded    dust 729 wallets, unknown basis 223 wallets (5.5% supply), infra 3 addresses</text>
<text x="24.0" y="490" font-family="'JetBrains Mono','SFMono-Regular',Consolas,'Liberation Mono',monospace" font-size="14" fill="#cfe4f0" xml:space="preserve"> </text>
<text x="24.0" y="512" font-family="'JetBrains Mono','SFMono-Regular',Consolas,'Liberation Mono',monospace" font-size="14" fill="#5d7387" xml:space="preserve">source rpc   176 requests   50.0s</text>
<text x="24" y="558" font-family="'JetBrains Mono','SFMono-Regular',Consolas,'Liberation Mono',monospace" font-size="11" fill="#31404f">captured 2026-09-16 15:50 UTC; a historical grade of a public token, not a current one</text>
</svg>
